# xmcd
#
# Track frame offsets:
#	150
#	14651
#	28219
#	39560
#	53444
#	66358
#	81638
#	96194
#	106026
#	121817
#	135470
#	150352
#	164164
#	177538
#	190296
#	204824
#	214749
#	233867
#
# Disc length: 3320 seconds
#
# Revision: 0
# Processed by: cddbd v1.5.1PL2 Copyright (c) Steve Scherf et al.
# Submitted via: dBpowerAMP V4.0
#
DISCID=f80cf612
DTITLE=Slim Dusty - Not so Dusty
DYEAR=1900
DGENRE=
TTITLE0=When the rain tumbles down in July
TTITLE1=Pub with no Beer
TTITLE2=Drowning my Blues
TTITLE3=Lights on the Hill
TTITLE4=Walk a country Mile
TTITLE5=Losin my blues tonight
TTITLE6=Saddle Boy
TTITLE7=Wedding Bell blues
TTITLE8=Indian Pacific
TTITLE9=Things are not the same on the Land
TTITLE10=The Sunlander
TTITLE11=The biggest Disappointment
TTITLE12=Gumtrees by the roadway
TTITLE13=Highway fever
TTITLE14=Plains of Peppimenarti
TTITLE15=Cunnamulla Fella
TTITLE16=Camooweal
TTITLE17=I must have good Terbaccy when i smoke
EXTD=
EXTT0=
EXTT1=
EXTT2=
EXTT3=
EXTT4=
EXTT5=
EXTT6=
EXTT7=
EXTT8=
EXTT9=
EXTT10=
EXTT11=
EXTT12=
EXTT13=
EXTT14=
EXTT15=
EXTT16=
EXTT17=
PLAYORDER=
